<mxfile host="app.diagrams.net" agent="Mozilla/5.0 (X11; Linux x86_64) AppleWebKit/537.36 (KHTML, like Gecko) Chrome/138.0.0.0 Safari/537.36" version="27.2.0">
  <diagram name="Page-1" id="kne6peY2nPMTJXlIG8h8">
    <mxGraphModel dx="815" dy="454" grid="1" gridSize="10" guides="1" tooltips="1" connect="1" arrows="1" fold="1" page="1" pageScale="1" pageWidth="827" pageHeight="583" math="1" shadow="0" adaptiveColors="auto">
      <root>
        <mxCell id="0" />
        <mxCell id="1" parent="0" />
        <mxCell id="DU7ztpAfhVa5KEGo_Qji-17" value="" style="endArrow=none;html=1;rounded=0;fillColor=#dae8fc;strokeColor=#6c8ebf;" edge="1" parent="1">
          <mxGeometry width="50" height="50" relative="1" as="geometry">
            <mxPoint x="240" y="300" as="sourcePoint" />
            <mxPoint x="360" y="350" as="targetPoint" />
          </mxGeometry>
        </mxCell>
        <mxCell id="DU7ztpAfhVa5KEGo_Qji-18" value="" style="endArrow=none;html=1;rounded=0;fillColor=#dae8fc;strokeColor=#6c8ebf;" edge="1" parent="1">
          <mxGeometry width="50" height="50" relative="1" as="geometry">
            <mxPoint x="239.5" y="350" as="sourcePoint" />
            <mxPoint x="360" y="350" as="targetPoint" />
          </mxGeometry>
        </mxCell>
        <mxCell id="DU7ztpAfhVa5KEGo_Qji-19" value="" style="endArrow=none;html=1;rounded=0;fillColor=#dae8fc;strokeColor=#6C8EBF;" edge="1" parent="1">
          <mxGeometry width="50" height="50" relative="1" as="geometry">
            <mxPoint x="239.25" y="439.71" as="sourcePoint" />
            <mxPoint x="360" y="350" as="targetPoint" />
          </mxGeometry>
        </mxCell>
        <mxCell id="DU7ztpAfhVa5KEGo_Qji-20" value="" style="endArrow=none;html=1;rounded=0;fillColor=#ffe6cc;strokeColor=#D79B00;" edge="1" parent="1">
          <mxGeometry width="50" height="50" relative="1" as="geometry">
            <mxPoint x="240" y="299.71" as="sourcePoint" />
            <mxPoint x="360" y="440" as="targetPoint" />
          </mxGeometry>
        </mxCell>
        <mxCell id="DU7ztpAfhVa5KEGo_Qji-21" value="" style="endArrow=none;html=1;rounded=0;fillColor=#ffe6cc;strokeColor=#d79b00;" edge="1" parent="1">
          <mxGeometry width="50" height="50" relative="1" as="geometry">
            <mxPoint x="239.5" y="350" as="sourcePoint" />
            <mxPoint x="360" y="440" as="targetPoint" />
          </mxGeometry>
        </mxCell>
        <mxCell id="DU7ztpAfhVa5KEGo_Qji-22" value="" style="endArrow=none;html=1;rounded=0;fillColor=#ffe6cc;strokeColor=#d79b00;" edge="1" parent="1">
          <mxGeometry width="50" height="50" relative="1" as="geometry">
            <mxPoint x="239.25" y="440" as="sourcePoint" />
            <mxPoint x="360" y="440" as="targetPoint" />
          </mxGeometry>
        </mxCell>
        <mxCell id="DU7ztpAfhVa5KEGo_Qji-14" value="" style="endArrow=none;html=1;rounded=0;fillColor=#d5e8d4;strokeColor=#82b366;" edge="1" parent="1">
          <mxGeometry width="50" height="50" relative="1" as="geometry">
            <mxPoint x="240" y="300" as="sourcePoint" />
            <mxPoint x="360" y="300" as="targetPoint" />
          </mxGeometry>
        </mxCell>
        <mxCell id="DU7ztpAfhVa5KEGo_Qji-15" value="" style="endArrow=none;html=1;rounded=0;fillColor=#d5e8d4;strokeColor=#82b366;" edge="1" parent="1">
          <mxGeometry width="50" height="50" relative="1" as="geometry">
            <mxPoint x="239.5" y="349.71" as="sourcePoint" />
            <mxPoint x="360" y="300" as="targetPoint" />
          </mxGeometry>
        </mxCell>
        <mxCell id="DU7ztpAfhVa5KEGo_Qji-16" value="" style="endArrow=none;html=1;rounded=0;fillColor=#d5e8d4;strokeColor=#82B366;" edge="1" parent="1">
          <mxGeometry width="50" height="50" relative="1" as="geometry">
            <mxPoint x="239.25" y="439.71" as="sourcePoint" />
            <mxPoint x="360" y="300" as="targetPoint" />
          </mxGeometry>
        </mxCell>
        <mxCell id="L4Gs1HaFy1u3a11CzFIE-5" style="edgeStyle=orthogonalEdgeStyle;rounded=1;orthogonalLoop=1;jettySize=auto;html=1;exitX=1;exitY=0.5;exitDx=0;exitDy=0;entryX=0;entryY=0.5;entryDx=0;entryDy=0;" parent="1" source="L4Gs1HaFy1u3a11CzFIE-2" target="L4Gs1HaFy1u3a11CzFIE-3" edge="1">
          <mxGeometry relative="1" as="geometry" />
        </mxCell>
        <mxCell id="L4Gs1HaFy1u3a11CzFIE-14" value="Koopman eigenfunctions" style="edgeLabel;html=1;align=center;verticalAlign=middle;resizable=0;points=[];rounded=1;fontFamily=Ubuntu;fontSize=10;" parent="L4Gs1HaFy1u3a11CzFIE-5" vertex="1" connectable="0">
          <mxGeometry x="-0.1539" relative="1" as="geometry">
            <mxPoint x="24" y="-10" as="offset" />
          </mxGeometry>
        </mxCell>
        <mxCell id="L4Gs1HaFy1u3a11CzFIE-15" value="\(\boldsymbol{\Lambda}, \boldsymbol{\varphi}\)" style="edgeLabel;html=1;align=center;verticalAlign=middle;resizable=0;points=[];rounded=1;" parent="L4Gs1HaFy1u3a11CzFIE-5" vertex="1" connectable="0">
          <mxGeometry x="0.0744" y="-2" relative="1" as="geometry">
            <mxPoint x="8" y="8" as="offset" />
          </mxGeometry>
        </mxCell>
        <mxCell id="L4Gs1HaFy1u3a11CzFIE-3" value="Model Predictive Control" style="rounded=1;whiteSpace=wrap;html=1;fontFamily=Ubuntu;fontSize=11;" parent="1" vertex="1">
          <mxGeometry x="560" y="140" width="100" height="40" as="geometry" />
        </mxCell>
        <mxCell id="L4Gs1HaFy1u3a11CzFIE-7" value="&lt;span style=&quot;font-weight: normal; line-height: 100%;&quot;&gt;&lt;font&gt;DRL model&lt;/font&gt;&lt;/span&gt;" style="swimlane;whiteSpace=wrap;html=1;rounded=1;arcSize=25;startSize=20;fillColor=#dae8fc;strokeColor=#6c8ebf;align=center;fontFamily=Ubuntu;" parent="1" vertex="1">
          <mxGeometry x="160" y="100" width="279" height="140" as="geometry">
            <mxRectangle x="160" y="100" width="130" height="30" as="alternateBounds" />
          </mxGeometry>
        </mxCell>
        <mxCell id="L4Gs1HaFy1u3a11CzFIE-1" value="Basis functions" style="rounded=1;whiteSpace=wrap;html=1;fontFamily=Ubuntu;fontSize=11;" parent="L4Gs1HaFy1u3a11CzFIE-7" vertex="1">
          <mxGeometry x="20" y="40" width="100" height="40" as="geometry" />
        </mxCell>
        <mxCell id="L4Gs1HaFy1u3a11CzFIE-2" value="Weights" style="rounded=1;whiteSpace=wrap;html=1;fontFamily=Ubuntu;fontSize=11;" parent="L4Gs1HaFy1u3a11CzFIE-7" vertex="1">
          <mxGeometry x="154" y="40" width="100" height="40" as="geometry" />
        </mxCell>
        <mxCell id="L4Gs1HaFy1u3a11CzFIE-4" style="edgeStyle=orthogonalEdgeStyle;rounded=1;orthogonalLoop=1;jettySize=auto;html=1;exitX=1;exitY=0.5;exitDx=0;exitDy=0;entryX=0;entryY=0.5;entryDx=0;entryDy=0;fontFamily=Ubuntu;" parent="L4Gs1HaFy1u3a11CzFIE-7" source="L4Gs1HaFy1u3a11CzFIE-1" target="L4Gs1HaFy1u3a11CzFIE-2" edge="1">
          <mxGeometry relative="1" as="geometry" />
        </mxCell>
        <mxCell id="L4Gs1HaFy1u3a11CzFIE-8" value="" style="verticalLabelPosition=bottom;shadow=0;dashed=0;align=center;html=1;verticalAlign=top;strokeWidth=2;shape=mxgraph.mockup.markup.curlyBrace;whiteSpace=wrap;direction=west;rounded=1;fontFamily=Ubuntu;fillColor=none;strokeColor=#B85450;" parent="L4Gs1HaFy1u3a11CzFIE-7" vertex="1">
          <mxGeometry x="20" y="90" width="100" height="10" as="geometry" />
        </mxCell>
        <mxCell id="L4Gs1HaFy1u3a11CzFIE-9" value="&lt;font face=&quot;Ubuntu&quot;&gt;independent on \(\theta\)&lt;/font&gt;" style="text;html=1;align=center;verticalAlign=middle;resizable=0;points=[];autosize=1;strokeColor=none;fillColor=none;fontColor=light-dark(#B85450,#EDEDED);" parent="L4Gs1HaFy1u3a11CzFIE-7" vertex="1">
          <mxGeometry x="-10" y="100" width="160" height="30" as="geometry" />
        </mxCell>
        <mxCell id="L4Gs1HaFy1u3a11CzFIE-12" value="" style="verticalLabelPosition=bottom;shadow=0;dashed=0;align=center;html=1;verticalAlign=top;strokeWidth=2;shape=mxgraph.mockup.markup.curlyBrace;whiteSpace=wrap;direction=west;rounded=1;fontFamily=Ubuntu;fillColor=#d5e8d4;strokeColor=#82b366;" parent="L4Gs1HaFy1u3a11CzFIE-7" vertex="1">
          <mxGeometry x="154" y="90" width="100" height="10" as="geometry" />
        </mxCell>
        <mxCell id="L4Gs1HaFy1u3a11CzFIE-13" value="&lt;font face=&quot;Ubuntu&quot;&gt;dependent on \(\theta\)&lt;/font&gt;" style="text;html=1;align=center;verticalAlign=middle;resizable=0;points=[];autosize=1;strokeColor=none;fillColor=none;fontColor=light-dark(#82B366,#EDEDED);" parent="L4Gs1HaFy1u3a11CzFIE-7" vertex="1">
          <mxGeometry x="129" y="100" width="150" height="30" as="geometry" />
        </mxCell>
        <mxCell id="L4Gs1HaFy1u3a11CzFIE-16" value="\((X,Y)_\theta\)" style="text;align=center;verticalAlign=middle;resizable=0;points=[];autosize=1;strokeColor=none;fillColor=none;html=1;textShadow=0;labelBorderColor=none;" parent="1" vertex="1">
          <mxGeometry x="60" y="145" width="100" height="30" as="geometry" />
        </mxCell>
        <mxCell id="L4Gs1HaFy1u3a11CzFIE-18" value="" style="endArrow=classic;html=1;rounded=1;entryX=0;entryY=0.5;entryDx=0;entryDy=0;" parent="1" target="L4Gs1HaFy1u3a11CzFIE-1" edge="1">
          <mxGeometry width="50" height="50" relative="1" as="geometry">
            <mxPoint x="140" y="160" as="sourcePoint" />
            <mxPoint x="190" y="130" as="targetPoint" />
          </mxGeometry>
        </mxCell>
        <mxCell id="DU7ztpAfhVa5KEGo_Qji-1" value="\(\psi_1\)" style="rounded=1;whiteSpace=wrap;html=1;" vertex="1" parent="1">
          <mxGeometry x="160" y="280" width="40" height="40" as="geometry" />
        </mxCell>
        <mxCell id="DU7ztpAfhVa5KEGo_Qji-2" value="\(\psi_2\)" style="rounded=1;whiteSpace=wrap;html=1;" vertex="1" parent="1">
          <mxGeometry x="160" y="330" width="40" height="40" as="geometry" />
        </mxCell>
        <mxCell id="DU7ztpAfhVa5KEGo_Qji-3" value="" style="endArrow=classic;html=1;rounded=0;" edge="1" parent="1">
          <mxGeometry width="50" height="50" relative="1" as="geometry">
            <mxPoint x="120" y="300" as="sourcePoint" />
            <mxPoint x="160" y="300" as="targetPoint" />
          </mxGeometry>
        </mxCell>
        <mxCell id="DU7ztpAfhVa5KEGo_Qji-4" value="" style="endArrow=classic;html=1;rounded=0;" edge="1" parent="1">
          <mxGeometry width="50" height="50" relative="1" as="geometry">
            <mxPoint x="120" y="349.71" as="sourcePoint" />
            <mxPoint x="160" y="349.71" as="targetPoint" />
          </mxGeometry>
        </mxCell>
        <mxCell id="DU7ztpAfhVa5KEGo_Qji-5" value="\(\psi_K\)" style="rounded=1;whiteSpace=wrap;html=1;" vertex="1" parent="1">
          <mxGeometry x="160" y="420" width="40" height="40" as="geometry" />
        </mxCell>
        <mxCell id="DU7ztpAfhVa5KEGo_Qji-6" value="" style="endArrow=classic;html=1;rounded=0;" edge="1" parent="1">
          <mxGeometry width="50" height="50" relative="1" as="geometry">
            <mxPoint x="120" y="439.71" as="sourcePoint" />
            <mxPoint x="160" y="439.71" as="targetPoint" />
          </mxGeometry>
        </mxCell>
        <mxCell id="DU7ztpAfhVa5KEGo_Qji-7" value="" style="endArrow=none;dashed=1;html=1;dashPattern=1 3;strokeWidth=2;rounded=0;startSize=4;endSize=9;sourcePerimeterSpacing=8;jumpSize=5;" edge="1" parent="1">
          <mxGeometry width="50" height="50" relative="1" as="geometry">
            <mxPoint x="180" y="410" as="sourcePoint" />
            <mxPoint x="180" y="380" as="targetPoint" />
          </mxGeometry>
        </mxCell>
        <mxCell id="DU7ztpAfhVa5KEGo_Qji-8" value="" style="endArrow=oval;html=1;rounded=0;endFill=1;" edge="1" parent="1">
          <mxGeometry width="50" height="50" relative="1" as="geometry">
            <mxPoint x="200" y="300" as="sourcePoint" />
            <mxPoint x="240" y="300" as="targetPoint" />
          </mxGeometry>
        </mxCell>
        <mxCell id="DU7ztpAfhVa5KEGo_Qji-9" value="" style="endArrow=oval;html=1;rounded=0;endFill=1;" edge="1" parent="1">
          <mxGeometry width="50" height="50" relative="1" as="geometry">
            <mxPoint x="200" y="349.71" as="sourcePoint" />
            <mxPoint x="240" y="349.71" as="targetPoint" />
          </mxGeometry>
        </mxCell>
        <mxCell id="DU7ztpAfhVa5KEGo_Qji-10" value="" style="endArrow=oval;html=1;rounded=0;endFill=1;" edge="1" parent="1">
          <mxGeometry width="50" height="50" relative="1" as="geometry">
            <mxPoint x="200" y="439.71" as="sourcePoint" />
            <mxPoint x="240" y="439.71" as="targetPoint" />
          </mxGeometry>
        </mxCell>
        <mxCell id="DU7ztpAfhVa5KEGo_Qji-11" value="" style="endArrow=oval;html=1;rounded=0;endFill=1;fillColor=#d5e8d4;strokeColor=#82b366;" edge="1" parent="1">
          <mxGeometry width="50" height="50" relative="1" as="geometry">
            <mxPoint x="400" y="299.71" as="sourcePoint" />
            <mxPoint x="360" y="299.71" as="targetPoint" />
          </mxGeometry>
        </mxCell>
        <mxCell id="DU7ztpAfhVa5KEGo_Qji-12" value="" style="endArrow=oval;html=1;rounded=0;endFill=1;fillColor=#dae8fc;strokeColor=#6c8ebf;" edge="1" parent="1">
          <mxGeometry width="50" height="50" relative="1" as="geometry">
            <mxPoint x="400" y="349.71" as="sourcePoint" />
            <mxPoint x="360" y="349.71" as="targetPoint" />
          </mxGeometry>
        </mxCell>
        <mxCell id="DU7ztpAfhVa5KEGo_Qji-13" value="" style="endArrow=oval;html=1;rounded=0;endFill=1;fillColor=#ffe6cc;strokeColor=#d79b00;" edge="1" parent="1">
          <mxGeometry width="50" height="50" relative="1" as="geometry">
            <mxPoint x="400" y="439.71" as="sourcePoint" />
            <mxPoint x="360" y="439.71" as="targetPoint" />
          </mxGeometry>
        </mxCell>
        <mxCell id="DU7ztpAfhVa5KEGo_Qji-23" value="\(\varphi_1\)" style="text;html=1;align=center;verticalAlign=middle;resizable=0;points=[];autosize=1;strokeColor=none;fillColor=none;fontColor=#82B366;" vertex="1" parent="1">
          <mxGeometry x="374" y="280" width="80" height="30" as="geometry" />
        </mxCell>
        <mxCell id="DU7ztpAfhVa5KEGo_Qji-24" value="\(\varphi_2\)" style="text;html=1;align=center;verticalAlign=middle;resizable=0;points=[];autosize=1;strokeColor=none;fillColor=none;fontColor=#6C8EBF;" vertex="1" parent="1">
          <mxGeometry x="374" y="330" width="80" height="30" as="geometry" />
        </mxCell>
        <mxCell id="DU7ztpAfhVa5KEGo_Qji-25" value="\(\varphi_P\)" style="text;html=1;align=center;verticalAlign=middle;resizable=0;points=[];autosize=1;strokeColor=none;fillColor=none;fontColor=#D79B00;" vertex="1" parent="1">
          <mxGeometry x="374" y="420" width="80" height="30" as="geometry" />
        </mxCell>
      </root>
    </mxGraphModel>
  </diagram>
</mxfile>
